<svg width="23" height="17" viewBox="0 0 23 17" fill="none" xmlns="http://www.w3.org/2000/svg">
<path fill-rule="evenodd" clip-rule="evenodd" d="M1.58113 7.31839C7.75513 4.9193 11.8721 3.33767 13.932 2.5735C19.8136 0.391658 21.0357 0.0126486 21.8323 0.000133439C22.0075 -0.00261913 22.3992 0.0361057 22.6529 0.219742C22.8672 0.374801 22.9262 0.584264 22.9544 0.731277C22.9826 0.87829 23.0177 1.21319 22.9898 1.47487C22.6711 4.46165 21.2919 11.7098 20.5903 15.055C20.2935 16.4705 19.7089 16.9451 19.143 16.9916C17.9131 17.0925 16.9792 16.2667 15.788 15.5702C13.924 14.4805 12.8709 13.8021 11.0616 12.7387C8.97061 11.5097 10.3261 10.8343 11.5178 9.73037C11.8296 9.44148 17.2485 5.04547 17.3534 4.64668C17.3665 4.59681 17.3787 4.41089 17.2549 4.31273C17.131 4.21456 16.9483 4.24813 16.8164 4.27483C16.6294 4.31267 13.6517 6.06807 7.88309 9.54101C7.03787 10.0587 6.27229 10.3109 5.58635 10.2977C4.83017 10.2831 3.37557 9.91632 2.29422 9.60282C0.967909 9.2183 -0.0862189 9.01501 0.00557197 8.36197C0.0533823 8.02183 0.578568 7.67397 1.58113 7.31839Z" fill="white"/>
</svg>
