<svg width="43" height="24" viewBox="0 0 43 24" fill="none" xmlns="http://www.w3.org/2000/svg">
<path d="M2.79533 0.0857141C2.49284 0.174122 2.26633 0.294302 2.09859 0.49322C1.85774 0.770876 1.84771 0.813698 1.86778 1.64252C1.87781 2.1191 1.87781 2.96312 1.86778 3.53362C1.85774 4.55308 1.85774 4.55308 1.66134 4.4923C1.26709 4.36245 0.323771 4.42323 0.164639 4.589C0.0298786 4.72851 0.0298786 4.72851 0.18471 4.6774C0.299399 4.64563 0.338107 4.65944 0.309435 4.72851C0.280762 4.79758 0.217683 4.83074 0.164639 4.81692C0.111595 4.80311 0.0642855 4.96473 0.0642855 5.24791C0.0619346 5.50194 0.0442233 5.75562 0.0112415 6.00767C-0.0217317 6.24803 0.0112415 6.35577 0.199046 6.54502C0.415522 6.76742 0.487203 6.78676 1.13233 6.78676C1.73302 6.78676 1.83911 6.81439 1.87781 6.93457C1.93086 7.13349 1.86778 16.9951 1.81474 17.1333C1.78606 17.212 1.58392 17.2451 1.19398 17.2451C0.804034 17.2451 0.52161 17.2963 0.343841 17.393C0.0743208 17.5504 0.0642855 17.5642 0.0542501 18.2411C0.0356131 19.617 0.0743208 19.6681 1.20401 19.6681H1.95953L1.93086 21.3271C1.89645 23.663 1.96383 23.7652 3.70425 23.8578C6.28763 23.9876 13.8471 24.0387 15.0886 23.9365C15.4997 23.905 15.9122 23.8939 16.3244 23.9034C16.9065 23.913 17.0498 23.9034 17.1559 23.8067C17.2477 23.7376 17.2806 23.7376 17.2806 23.8067C17.2806 23.8757 17.3251 23.9034 17.3724 23.9034C17.4197 23.9034 17.4641 23.8246 17.4641 23.7238C17.4641 23.623 17.4297 23.5746 17.3724 23.6022C17.315 23.6299 17.2806 23.6119 17.2806 23.5608C17.2806 23.4033 17.4971 23.5097 17.5932 23.7183C17.6892 23.9269 17.7093 23.9089 19.7006 23.9089C20.8116 23.9089 22.3356 23.9365 23.0911 23.96C25.1254 24.0387 28.3138 23.9269 28.3138 23.7694C28.3138 23.7003 28.3568 23.6492 28.4141 23.6492C28.4715 23.6492 28.4958 23.7086 28.4571 23.7791C28.4242 23.8896 28.5202 23.9089 29.1023 23.9089C29.4779 23.9172 31.5495 23.9269 33.7142 23.9365C35.879 23.9462 37.6051 23.9269 37.5807 23.8854C37.5563 23.844 37.6094 23.8246 37.6868 23.8246C37.7642 23.8246 37.8015 23.8675 37.7685 23.9269C37.6624 24.0899 40.0092 23.9545 40.4035 23.7652C41.0572 23.4544 41.0959 23.3246 41.1017 21.4473C41.1103 20.5218 41.1346 19.7095 41.1733 19.6308C41.2063 19.5299 41.2794 19.5106 41.4228 19.552C41.6823 19.6405 42.6586 19.5949 42.8421 19.5023C42.9568 19.4319 42.9482 19.4222 42.8134 19.4139C42.7116 19.4139 42.6586 19.3725 42.6887 19.302C42.7188 19.2316 42.7704 19.2053 42.8134 19.215C42.9281 19.2426 43.0198 17.8571 42.9195 17.6858C42.703 17.3142 42.6686 17.2963 41.8514 17.2548L41.0343 17.212L41.0142 11.9987L40.9855 6.79505H41.7841C42.5195 6.79505 42.5826 6.77709 42.7991 6.55469C42.9869 6.36406 43.0241 6.26184 42.9869 6.01734C42.9568 5.85433 42.9338 5.50761 42.9338 5.26587C42.9338 4.9744 42.8994 4.81692 42.832 4.83488C42.7647 4.85284 42.7073 4.80311 42.6887 4.73818C42.67 4.67326 42.6973 4.64978 42.8134 4.68707C42.9568 4.73818 42.9568 4.72851 42.8421 4.60833C42.6973 4.46053 41.8127 4.39008 41.4085 4.49644C41.0042 4.60281 40.9712 4.50611 40.9139 2.9493C40.8121 0.54433 40.6243 0.20175 39.3985 0.233521C39.0372 0.243191 38.7018 0.223852 38.643 0.20175C38.547 0.117486 37.023 0.0166453 36.2532 0.0166453C35.955 0.0249336 35.436 0.0249336 35.0891 0.0249336C34.7421 0.0249336 32.973 0.0442728 31.1409 0.0525611C29.3087 0.0608493 27.4808 0.0801886 27.0579 0.0953837C26.635 0.110579 26.116 0.127155 25.8938 0.123011C22.413 0.0719003 19.5271 0.0525611 19.3737 0.0898582C19.2576 0.117486 19.1759 0.168597 19.1945 0.20175C19.2131 0.234903 19.1759 0.270818 19.1228 0.280488C19.0698 0.290157 19.0311 0.25286 19.0311 0.19208C19.0311 0.131299 18.5981 0.0898582 17.1946 0.0898582C15.7667 0.0898582 15.3667 0.117486 15.3725 0.19208C15.3782 0.266674 15.3381 0.303971 15.2564 0.303971C15.1746 0.303971 15.1417 0.270818 15.1646 0.223852C15.2707 0.0663748 14.6886 0.0442728 10.6014 0.0442728C8.33054 0.0442728 5.74859 0.0249336 4.85831 0.0111198C3.68131 -0.0165077 3.1179 0.00697571 2.79533 0.0857141ZM21.0281 2.42576C33.3056 2.44372 37.3685 2.41609 37.3685 2.34702C37.3685 2.27796 37.3986 2.27796 37.4416 2.34702C37.4846 2.41609 37.7111 2.4672 37.9506 2.47687L38.3979 2.5045L38.4079 2.93549C38.4265 3.62618 38.5427 10.609 38.5326 10.7568C38.5039 11.4945 38.5326 17.0504 38.5756 18.9871C38.6186 20.9237 38.61 21.4763 38.524 21.526C38.4609 21.5592 38.1197 21.5771 37.7785 21.5689C37.1148 21.5412 34.6905 21.5412 25.3992 21.5495C20.5808 21.5592 19.9543 21.5771 19.9988 21.689C20.0317 21.7774 19.9887 21.8189 19.8726 21.8189C19.7565 21.8189 19.7092 21.7774 19.7479 21.689C19.7909 21.5771 19.2289 21.5689 15.2377 21.5689C12.7361 21.5771 9.94766 21.6006 9.03875 21.6282C8.12983 21.6559 7.40729 21.6614 7.40729 21.62C7.40729 21.5177 7.09476 21.5495 6.97433 21.6614C6.89262 21.7401 6.84101 21.7484 6.79657 21.6794C6.75212 21.6103 6.33064 21.5771 5.62386 21.5689C5.01314 21.5592 4.4741 21.5357 4.44113 21.5081C4.40815 21.4804 4.35941 21.1558 4.35941 20.7663C4.35941 20.1875 4.33934 20.0853 4.22465 20.1267C4.1329 20.1598 4.08989 20.1184 4.08989 20.0065C4.08989 19.8946 4.1329 19.849 4.22465 19.8863C4.33934 19.9278 4.35941 19.5479 4.36801 16.8003C4.40242 6.46214 4.40242 6.58232 4.27769 6.54088C4.20458 6.51325 4.18594 6.4801 4.24759 6.4428C4.38235 6.36406 4.40242 5.3225 4.27769 4.9371C4.21462 4.76581 4.19598 4.57518 4.24329 4.51578C4.2906 4.45638 4.31497 3.96876 4.33504 3.45489C4.35511 2.94102 4.35368 2.45339 4.35368 2.38432C4.35368 2.31525 4.41676 2.28624 4.52284 2.34288C4.60456 2.37465 12.0336 2.41609 21.0281 2.42576V2.42576Z" fill="white"/>
<path d="M32.8241 4.60422L30.9159 4.62218L30.5647 4.95094C30.2665 5.2286 30.2034 5.34049 30.1604 5.748C30.0586 6.56853 30.0586 7.71784 30.1403 9.5523C30.1848 10.5303 30.2134 11.4807 30.1934 11.6699C30.1733 11.8592 30.1604 13.4492 30.1604 15.2159L30.1504 18.4124L30.3668 18.7509C30.483 18.9318 30.708 19.1308 30.8672 19.1998C31.2284 19.349 34.8297 19.3808 35.3057 19.2426C35.7443 19.1128 36.0941 18.6818 36.1472 18.2038C36.2389 17.3654 36.2002 10.9793 36.1042 10.7389L36.0038 10.5068H34.7724C33.9409 10.5068 33.5079 10.54 33.4348 10.6091C33.3617 10.6781 33.3301 11.0166 33.3301 11.5401V12.3703L33.5982 12.5181L33.8677 12.6756L33.8778 13.6439C33.8778 14.1813 33.8778 15.0433 33.8677 15.582C33.8591 16.1608 33.8964 16.6097 33.9595 16.7023C34.0226 16.7948 34.0412 16.9247 33.9695 17.0918C33.8778 17.3239 33.8677 17.3239 33.1997 17.2908C32.4356 17.259 32.2951 17.2037 32.4356 17.0324C32.5359 16.9109 32.5789 10.8688 32.4972 8.02864L32.4542 6.6376L33.0993 6.60583C34.0598 6.56439 34.0512 6.55472 34.0512 7.17496C34.0512 7.4761 34.0943 7.75513 34.1573 7.81453C34.2204 7.87393 34.239 7.91675 34.1573 7.91675C33.9595 7.91675 34.0412 8.15849 34.2577 8.20408C34.5802 8.26486 35.8447 8.21375 35.9365 8.12534C35.9694 8.0839 36.0268 7.4167 36.0511 6.6376L36.0856 5.22031L35.8347 4.97857C35.6182 4.76998 35.4318 4.70091 34.8297 4.60836C34.7724 4.58902 33.8634 4.58902 32.8241 4.60422V4.60422ZM7.19093 4.76998C7.10922 4.84872 7.08628 5.34049 7.10922 6.5409C7.13932 8.47759 7.12929 8.32978 7.23538 8.16678C7.30706 8.06456 7.32569 8.08804 7.32569 8.269C7.32569 8.38918 7.28269 8.50936 7.22104 8.5287C7.15939 8.54804 7.11495 8.92654 7.11495 9.81614C7.10492 10.8964 7.08628 11.0953 6.95152 11.2251C6.81676 11.355 6.78809 11.536 6.78809 12.333C6.78809 12.8607 6.81676 13.2641 6.84973 13.2406C6.93145 13.1618 7.23538 13.4312 7.23538 13.5887C7.23538 13.6495 7.20527 13.7006 7.1723 13.7006C7.13932 13.7006 7.09058 14.8858 7.07194 16.3362C7.05331 17.7867 7.09058 18.9733 7.12355 18.9733C7.15653 18.9733 7.24971 19.0714 7.30276 19.1915C7.40311 19.4001 7.43752 19.4084 8.29769 19.4084C9.62522 19.4084 9.55354 19.5659 9.52917 16.4205C9.5091 15.0433 9.49476 13.8801 9.47612 13.8346C9.37434 13.4644 9.42308 13.445 10.6976 13.445C12.0781 13.445 12.5971 13.3483 12.9053 13.0375L13.1118 12.8193L13.1405 9.0702C13.1591 6.54505 13.1304 5.25761 13.0688 5.14572C12.8423 4.74788 12.6014 4.71473 9.86607 4.6871C7.97082 4.67329 7.25831 4.69124 7.19093 4.76998V4.76998ZM10.7305 6.84204C10.7406 6.93045 10.7406 7.85183 10.7506 8.89891C10.7606 9.94599 10.7793 10.7292 10.7936 10.6463C10.8653 10.3867 11.0001 10.4889 11.0001 10.808C11.0001 11.058 10.9714 11.1091 10.8567 11.0677C10.742 11.0262 10.7305 11.058 10.7649 11.1699C10.7994 11.2818 10.7549 11.3177 10.2159 11.2901C9.87467 11.2721 9.57218 11.2017 9.5005 11.1423C9.3557 11.0027 9.34566 10.7527 9.48042 10.7527C9.5435 10.7527 9.56214 10.1463 9.52343 8.77459C9.5048 7.68468 9.5048 6.76745 9.53347 6.74397C9.56214 6.72048 9.846 6.69286 10.1643 6.69286C10.6445 6.69838 10.7305 6.72186 10.7305 6.84204V6.84204ZM14.8665 4.74235C14.7131 4.91365 14.7662 6.83237 14.9296 6.8006C14.9827 6.79093 15.0357 6.84204 15.0357 6.91111C15.0357 6.98018 14.9827 7.03129 14.9296 7.01333C14.8479 7.00366 14.8049 7.14318 14.7848 7.45399C14.7662 7.81453 14.7848 7.90294 14.8766 7.85183C14.9683 7.80072 14.9683 7.81039 14.8952 7.91261C14.7518 8.09357 14.6558 17.8848 14.7906 18.4635C14.8723 18.7744 14.9683 18.9415 15.1934 19.0935L15.4916 19.3159L17.8442 19.2841C20.4648 19.2509 20.6526 19.2053 20.9365 18.6763C21.1329 18.3061 21.2146 15.3914 21.1673 10.3176C21.1472 8.25105 21.1329 6.1928 21.1329 5.76181C21.1329 5.26175 21.0999 4.94127 21.0325 4.89569C20.9652 4.8501 20.9078 4.88602 20.8877 4.93713C20.8447 5.08494 20.6913 5.06698 20.6913 4.9095C20.6913 4.80728 20.5465 4.77965 19.9258 4.77965C18.6957 4.77965 18.7861 4.49233 18.7961 8.47759C18.8061 10.3176 18.8305 12.3427 18.8592 12.9629C18.9022 13.7835 18.8878 14.1122 18.8147 14.1122C18.6513 14.1122 18.7 14.441 18.8778 14.5335C18.9839 14.604 19.0025 14.6454 18.9208 14.691C18.8391 14.7366 18.8061 15.169 18.7861 15.9425C18.7574 16.944 18.733 17.1526 18.5983 17.2825C18.4635 17.4123 18.4305 17.4303 18.3201 17.2825C18.1854 17.1195 17.8098 17.0918 17.5402 17.2314C17.2707 17.3709 16.9926 17.1112 17.0643 16.8004C17.1274 16.5407 17.1704 9.3672 17.1274 6.76745L17.0944 4.98824L16.7087 4.78932C16.4493 4.6498 16.2614 4.59869 16.1511 4.6498C15.9833 4.71887 15.3812 4.71887 15.1217 4.64013C15.04 4.64013 14.9296 4.67329 14.8665 4.74235V4.74235ZM22.8604 4.73269C22.7586 4.86253 22.7256 7.99964 22.826 8.42234C22.869 8.58396 22.869 8.99146 22.8461 9.3299C22.8231 9.66834 22.816 9.97915 22.8647 10.0385C22.9808 10.1781 22.8647 10.4985 22.7013 10.4985C22.6296 10.4985 22.5952 10.54 22.6196 10.5856C22.6439 10.6312 22.6095 10.7348 22.5378 10.808C22.3744 10.9654 22.3314 12.1755 22.4848 12.2681C22.5378 12.2957 22.5765 12.3979 22.5765 12.4863C22.5765 12.5747 22.6196 12.6576 22.6769 12.6756C22.7586 12.7032 22.783 13.4782 22.783 15.5116C22.773 17.1388 22.8117 18.3613 22.8647 18.4263C22.9177 18.4912 22.9077 18.5464 22.8747 18.5658C22.8418 18.5851 22.8117 18.7744 22.8317 18.9636L22.8647 19.3159L25.2603 19.2882C28.8286 19.2606 28.6207 19.5065 28.6307 15.2519C28.6307 12.3938 28.6207 12.2639 28.453 12.0871C27.9139 11.5263 27.8523 11.4199 27.9956 11.3453C28.3569 11.1561 28.4429 10.7569 28.463 9.45975C28.4716 8.76906 28.4917 7.51339 28.506 6.67075C28.5347 5.22031 28.5246 5.12223 28.3426 4.96061C28.063 4.69124 27.6444 4.64013 25.2115 4.63184C23.5141 4.63184 22.9321 4.6498 22.8604 4.73269V4.73269ZM26.2165 6.70805C26.2696 6.79508 26.2696 7.44847 26.2165 9.98329C26.2065 10.6132 26.1635 10.6505 25.4911 10.5441L25.1055 10.493L25.0524 9.74293C25.0237 9.32575 24.9994 8.93206 24.9908 8.86161C24.9822 8.79116 25.0194 8.25519 25.0524 7.67087L25.1155 6.61412H25.6345C25.9183 6.60997 26.1778 6.65141 26.2165 6.70805V6.70805ZM26.1778 12.782C26.2122 12.8331 26.2509 13.5003 26.2509 14.26C26.2509 15.0198 26.2595 15.9978 26.2595 16.4385C26.2595 16.8791 26.2509 17.2687 26.2165 17.3101C26.1448 17.4206 25.2115 17.3792 25.0581 17.2493C24.9564 17.1706 24.942 17.0684 24.9951 16.8321C25.0381 16.6609 25.0768 15.6828 25.0768 14.6551C25.0768 13.0472 25.0969 12.7778 25.2216 12.6949C25.3893 12.5734 26.0817 12.6341 26.1778 12.782Z" fill="white"/>
</svg>
