<svg width="24" height="24" viewBox="0 0 24 24" fill="none" xmlns="http://www.w3.org/2000/svg">
<path d="M17.5859 11.934C16.6019 11.334 16.9139 11.754 17.3279 12.15C19.0859 13.806 20.2499 15.432 20.6819 16.842C20.9639 17.76 20.7119 18.318 20.2919 17.514C19.6499 16.296 18.8099 15.36 18.2939 14.946C17.7839 14.538 17.7959 14.736 18.0419 15.06C19.0439 16.398 19.6379 17.742 19.0439 18.786C18.0659 20.496 14.1239 20.064 10.2479 17.826C5.3159 14.982 2.27389 11.088 3.38989 9.09599C3.87589 8.22599 5.19589 7.86599 6.75589 7.99799C7.08589 8.02799 7.06789 7.91999 6.77389 7.84199C4.91389 7.34999 2.71789 7.81199 1.93789 9.16799C0.515895 11.634 3.82789 16.218 9.34189 19.404C10.5119 20.076 12.0359 20.832 13.8359 21.432C14.9279 21.798 14.7719 22.236 12.8939 21.87C10.9019 21.486 8.41789 20.448 6.07189 19.068C5.39389 18.672 5.30389 18.828 5.80789 19.32C6.27589 19.776 7.15789 20.472 8.23189 21.108C13.7039 24.366 20.5379 25.218 22.4999 21.816C24.2519 18.774 21.1019 14.076 17.5859 11.934Z" fill="white"/>
<path d="M0 0L2.952 5.112H9.078V15.21C10.62 16.458 13.182 17.772 14.922 17.886V5.112H21.048L24 0H0Z" fill="white"/>
</svg>
