<svg width="265" height="266" viewBox="0 0 265 266" fill="none" xmlns="http://www.w3.org/2000/svg">
<path d="M127.125 265.301C57.4109 265.301 0.716064 208.559 0.716064 138.788C0.716064 69.0168 57.4109 12.2754 127.125 12.2754C196.839 12.2754 253.534 69.0168 253.534 138.788C253.534 208.559 196.839 265.301 127.125 265.301ZM127.125 16.4593C59.7201 16.4593 4.8567 71.3677 4.8567 138.828C4.8567 206.288 59.7201 261.196 127.125 261.196C194.53 261.196 249.393 206.288 249.393 138.828C249.393 71.3279 194.53 16.4593 127.125 16.4593Z" fill="url(#paint0_linear_334_2993)"/>
<path d="M237.887 138.789C237.887 138.869 237.887 138.948 237.887 139.028H265C265 138.948 265 138.869 265 138.789C265 62.6821 203.13 0.760742 127.085 0.760742V27.8962C188.199 27.936 237.887 77.6644 237.887 138.789Z" fill="url(#paint1_linear_334_2993)"/>
<defs>
<linearGradient id="paint0_linear_334_2993" x1="0.716064" y1="138.805" x2="253.526" y2="138.805" gradientUnits="userSpaceOnUse">
<stop stop-color="#21D4FD"/>
<stop offset="0.1573" stop-color="#24D0FD"/>
<stop offset="0.3072" stop-color="#2EC5FD"/>
<stop offset="0.4541" stop-color="#3EB1FD"/>
<stop offset="0.5992" stop-color="#5596FE"/>
<stop offset="0.7429" stop-color="#7274FE"/>
<stop offset="0.8838" stop-color="#954AFF"/>
<stop offset="1" stop-color="#B721FF"/>
</linearGradient>
<linearGradient id="paint1_linear_334_2993" x1="127.121" y1="69.9246" x2="265.018" y2="69.9246" gradientUnits="userSpaceOnUse">
<stop stop-color="#21D4FD"/>
<stop offset="0.1573" stop-color="#24D0FD"/>
<stop offset="0.3072" stop-color="#2EC5FD"/>
<stop offset="0.4541" stop-color="#3EB1FD"/>
<stop offset="0.5992" stop-color="#5596FE"/>
<stop offset="0.7429" stop-color="#7274FE"/>
<stop offset="0.8838" stop-color="#954AFF"/>
<stop offset="1" stop-color="#B721FF"/>
</linearGradient>
</defs>
</svg>
