<svg width="256" height="257" viewBox="0 0 256 257" fill="none" xmlns="http://www.w3.org/2000/svg">
<path d="M208.145 31.7202C208.758 32.2777 209.707 32.2328 210.264 31.6201C210.822 31.0073 210.777 30.0586 210.164 29.5011L208.145 31.7202ZM234.257 59.2485L234.396 76.5684L249.326 67.7882L234.257 59.2485ZM217.286 216.933C168.471 265.749 89.3252 265.749 40.5097 216.933L38.3883 219.055C88.3754 269.042 169.421 269.042 219.408 219.055L217.286 216.933ZM40.5097 216.933C-8.30587 168.118 -8.30587 88.9721 40.5097 40.1566L38.3883 38.0353C-11.5988 88.0224 -11.5988 169.067 38.3883 219.055L40.5097 216.933ZM40.5097 40.1566C85.2678 -4.60154 161.785 -10.457 208.145 31.7202L210.164 29.5011C162.479 -13.8817 84.1399 -7.71629 38.3883 38.0353L40.5097 40.1566ZM219.408 219.055C229.754 208.708 243.54 187.142 250.742 160.396C257.954 133.615 258.597 101.509 242.436 70.2012L239.77 71.5773C255.506 102.062 254.914 133.365 247.846 159.616C240.767 185.903 227.227 206.992 217.286 216.933L219.408 219.055Z" fill="url(#paint0_linear_689_25)"/>
<defs>
<linearGradient id="paint0_linear_689_25" x1="-50" y1="128.545" x2="189.078" y2="-39.4995" gradientUnits="userSpaceOnUse">
<stop stop-color="#CD28E8"/>
<stop offset="1" stop-color="#0BEBD6"/>
</linearGradient>
</defs>
</svg>
