<svg width="34" height="24" viewBox="0 0 34 24" fill="none" xmlns="http://www.w3.org/2000/svg">
<path d="M32.1587 11.2627H26.5491C26.0625 11.2682 25.5974 11.4637 25.2533 11.8071C24.9092 12.1506 24.7134 12.6149 24.7078 13.1006V17.9305C24.7134 18.4163 24.9092 18.8805 25.2533 19.224C25.5974 19.5675 26.0625 19.7629 26.5491 19.7685H32.1587C32.6453 19.7629 33.1104 19.5675 33.4546 19.224C33.7987 18.8805 33.9945 18.4163 34 17.9305V13.1006C33.9945 12.6149 33.7987 12.1506 33.4546 11.8071C33.1104 11.4637 32.6453 11.2682 32.1587 11.2627ZM11.5831 4.93678H10.8766V4.80855C11.0693 4.80855 11.1978 4.7658 11.1121 4.61621C11.0265 4.46661 11.5403 4.38112 11.626 4.42386C11.7116 4.46661 11.6688 4.80855 11.5831 4.93678ZM10.6411 5.10775H11.4761C11.369 5.23597 11.1121 5.70614 10.9408 5.70614C10.7987 5.53066 10.6965 5.3265 10.6411 5.10775ZM26.592 13.1006H32.1373V17.9305H26.592V13.1006ZM15.2015 13.1006H22.9307C22.9252 12.6149 22.7294 12.1506 22.3853 11.8071C22.0412 11.4637 21.5761 11.2682 21.0894 11.2627H15.1587C14.6721 11.2682 14.207 11.4637 13.8629 11.8071C13.5187 12.1506 13.323 12.6149 13.3174 13.1006V17.9305C13.323 18.4163 13.5187 18.8805 13.8629 19.224C14.207 19.5675 14.6721 19.7629 15.1587 19.7685H21.0894C21.5761 19.7629 22.0412 19.5675 22.3853 19.224C22.7294 18.8805 22.9252 18.4163 22.9307 17.9305V14.7462H16.6575C16.6631 15.1223 16.8167 15.481 17.0851 15.7449C17.3535 16.0088 17.7152 16.1568 18.092 16.1567H21.1751V17.9305H15.2015V13.1006ZM13.3388 4.10329L13.2103 4.14604C12.9534 4.50935 13.1033 4.46661 12.6323 4.78718C12.611 5.20742 12.6691 5.62791 12.8035 6.02671V6.06946H12.7607L12.3967 6.13357C12.4315 6.34587 12.4315 6.5624 12.3967 6.77471C12.3111 7.18076 11.3476 8.09973 11.1121 8.14247C10.8766 8.18522 10.427 7.92876 9.84889 7.69368C9.69901 7.62956 9.16375 7.26625 8.90682 7.18076C8.64989 7.09528 8.43579 7.65093 8.71413 7.80053C8.88703 7.87071 9.0358 7.9895 9.14234 8.14247C9.33503 8.65539 9.09951 10.6215 8.69271 11.0062C8.50002 11.0062 8.35015 10.8353 8.20027 10.878C8.0504 10.9207 8.11463 11.797 8.20027 11.9252C9.76324 13.5494 9.57055 14.7248 10.2557 15.6224C10.5554 15.6224 10.3413 15.943 10.5768 16.3277C10.6079 16.542 10.5933 16.7605 10.534 16.9688V17.4604C10.5102 17.507 10.4957 17.5578 10.4912 17.61V18.0374C10.4288 18.2625 10.3788 18.4908 10.3413 18.7213C10.2557 19.1273 10.5983 19.4265 10.3842 19.8326C10.17 20.2386 10.3842 20.0249 10.2557 20.2173C10.1272 20.4096 10.17 21.3713 10.2557 21.6278C10.3413 21.8842 11.0051 22.6322 11.1763 22.7177C11.3476 22.8032 12.2255 22.8673 12.0328 23.5298C10.791 23.9145 9.99876 23.3161 9.33503 23.3161V23.423C9.04523 23.417 8.7574 23.3739 8.47861 23.2947C8.52375 22.9142 8.58806 22.5362 8.6713 22.1621L8.79977 21.9484C8.864 21.7988 8.75695 20.7088 8.75695 20.4096C8.75695 20.1104 8.43579 19.6402 8.43579 19.2983C8.36047 19.02 8.33153 18.7312 8.35015 18.4435C8.29202 18.2569 8.27737 18.0595 8.30732 17.8664C8.35015 17.7382 8.47861 17.6741 8.52143 17.5672V17.2039C8.58566 16.8192 8.56425 16.6483 8.35015 16.4132C7.77206 16.4345 7.68642 16.4559 7.36526 15.9644C7.06207 15.4635 6.73334 14.9784 6.38037 14.5111C5.71664 14.2119 5.84511 14.3402 5.54536 13.8059C5.39414 13.8625 5.26609 13.9678 5.18138 14.1051C4.86444 14.7232 4.59947 15.3666 4.38919 16.0285C4.32496 16.2636 4.38919 16.52 4.30355 16.7124C4.2179 16.9047 3.98239 16.8833 3.93957 16.9902C3.89674 17.0971 3.87533 17.3749 3.42571 17.6741C3.34007 17.7809 3.34007 17.9305 3.27584 18.0588L3.16879 18.187C3.10455 18.358 3.25443 18.6572 3.23302 18.7427C3.21161 18.8281 3.04032 19.2769 2.95468 19.5334C2.86904 19.7898 2.76198 20.6661 2.56929 20.9653C2.37659 21.2645 2.20531 20.9653 2.01261 21.0935C1.81992 21.2217 1.69146 21.8842 1.62722 22.0766V23.1879C1.69146 23.3802 1.84133 23.5512 1.79851 23.7863C1.75569 24.0214 0.877853 24.0214 0.406821 23.9573C-0.064212 23.8931 1.97305e-05 23.6794 1.97305e-05 23.423C1.97305e-05 23.1665 0.642337 21.0294 0.620927 20.8798C0.128483 20.3455 0.74939 19.7685 0.920675 19.2556C1.09196 18.7427 0.963496 18.6572 1.04914 18.4221C1.13478 18.187 1.41312 17.8023 1.5844 17.4817C1.75569 17.1612 1.75569 17.1825 1.92697 16.9047C2.09826 16.6269 2.24813 16.52 2.14108 16.1781C1.92697 15.4515 2.398 14.447 2.41942 13.7204C2.33377 13.6349 2.05544 13.6563 2.03402 13.4212C2.01261 13.1861 2.20531 12.1389 2.35518 12.0748C2.50506 12.0107 2.50506 12.0748 2.56929 12.0321C2.63352 11.9893 2.20531 9.7667 2.48365 9.65984C2.76198 9.55298 3.01891 9.57435 3.08314 9.53161C3.14737 9.48887 3.01891 9.27516 2.95468 9.27516L2.41942 9.1683C1.84133 9.04007 2.37659 6.77471 2.37659 6.75334C2.37659 6.73197 3.27584 6.83882 3.36148 6.47551C3.44712 6.1122 3.16879 4.95815 4.0038 3.46215C4.30355 2.97061 4.83881 2.4577 5.48113 2.67141C5.67382 2.7569 5.54536 3.0561 5.93075 2.73553C5.91352 2.55917 5.87023 2.38632 5.80229 2.22262C5.18138 0.384682 7.27962 -0.61977 8.75695 0.427425C8.89151 0.478572 9.02061 0.543006 9.14234 0.619767C9.20657 1.04719 9.63478 1.77382 9.20657 2.26536C9.02766 2.30822 8.85985 2.38833 8.71413 2.50044C8.7144 2.64397 8.72875 2.78713 8.75695 2.92787C8.77836 3.01336 8.84259 3.0561 8.69271 3.09884V3.18433C9.01442 3.21692 9.33909 3.16537 9.63478 3.03473H9.91312V2.69279H10.0416V2.41496H10.17V2.88513H10.5126V3.03473H15.5869V3.29118H15.801V2.32947H15.9937V3.12021H16.4219V3.56901H17.7708V3.41941H17.9849V3.48352H18.6272V3.86821H17.9849V3.91095H17.7708V3.78272H16.4219V3.91095H15.8438V3.82547H15.5869V4.10329H13.3388Z" fill="white"/>
</svg>
