<svg width="18" height="17" viewBox="0 0 18 17" fill="none" xmlns="http://www.w3.org/2000/svg">
<path d="M5.64897 8.15036H6.99347V9.49487H5.64897V8.15036ZM15.0605 4.7891V14.2006C15.0605 14.9401 14.4555 15.5451 13.716 15.5451H4.30446C3.55826 15.5451 2.95996 14.9401 2.95996 14.2006L2.96668 4.7891C2.96668 4.04963 3.55826 3.4446 4.30446 3.4446H4.97672V2.1001H6.32122V3.4446H11.6992V2.1001H13.0437V3.4446H13.716C14.4555 3.4446 15.0605 4.04963 15.0605 4.7891ZM4.30446 6.13361H13.716V4.7891H4.30446V6.13361ZM13.716 14.2006V7.47811H4.30446V14.2006H13.716ZM11.027 9.49487H12.3715V8.15036H11.027V9.49487ZM8.33798 9.49487H9.68248V8.15036H8.33798V9.49487Z" fill="white"/>
</svg>
