<svg width="24" height="24" viewBox="0 0 24 24" fill="none" xmlns="http://www.w3.org/2000/svg">
<path d="M24 2.28571V1.14286C24 0.827009 23.7444 0.571429 23.4286 0.571429H21.1429C20.9163 0.571429 20.7344 0.585937 20.5714 0.628348V0.571429C20.5714 0.25558 20.3158 0 20 0H16.5714C15.5804 0 15.2221 0.5625 15.0123 1.14286H14.548C14.4152 0.965402 14.2857 0.734375 14.2857 0.571429C14.2857 0.25558 14.0301 0 13.7143 0H9.71429C9.42188 0 9.17746 0.22433 9.14621 0.514509C9.13281 0.633929 8.88951 1.14286 8.51228 1.14286H6.94643C6.9096 1.09933 6.85491 1.01674 6.80915 0.912946C6.71763 0.705357 6.51228 0.571429 6.28571 0.571429H0.571429C0.25558 0.571429 0 0.827009 0 1.14286V5.71429C0 7.32701 0.470982 9.36942 0.570312 9.78125L0.565848 10.6473L0.178571 11.0134C0.064732 11.1217 0 11.2712 0 11.4286V13.7143C0 13.8661 0.0602681 14.0112 0.167411 14.1183L0.571429 14.5223V17.0502L0.0301339 18.6763C-0.00558036 18.7801 -0.00892857 18.8906 0.0178571 18.9955L0.549107 21.1205L0.0301339 22.6775C-0.0290178 22.8516 0.00111607 23.0435 0.108259 23.192C0.215402 23.3404 0.388393 23.4286 0.571429 23.4286H8.57143C8.72322 23.4286 8.8683 23.3683 8.97545 23.2612L9.02679 23.2098C9.33036 23.625 9.75223 24 10.2857 24H12C12.4208 24 12.7891 23.817 13.1127 23.654C13.3348 23.5424 13.5636 23.4286 13.7143 23.4286H16.5714C16.7232 23.4286 16.8683 23.3683 16.9754 23.2612L17.1138 23.1228C17.1507 23.1685 17.1842 23.2132 17.2188 23.2567C17.4989 23.6228 17.7891 24 18.2857 24H21.1429C21.4587 24 21.7143 23.7444 21.7143 23.4286V23.0179L23.2902 23.4107C23.4609 23.4554 23.6417 23.4152 23.7813 23.3058C23.9208 23.1975 24.0011 23.0301 24 22.8527C23.9989 22.7969 23.9643 17.1897 24 14.2924C24.0022 14.1384 23.9408 13.99 23.8326 13.8817L23.4286 13.4777V10.8571C23.4286 10.7054 23.3683 10.5603 23.2612 10.4531L22.981 10.173L23.327 9.48214L23.8326 8.97545C23.9397 8.8683 24 8.72322 24 8.57143L23.9911 5.70871C23.9911 5.66183 23.9855 5.61607 23.9743 5.57143L23.4632 3.49554L23.9397 2.54129C23.9799 2.46205 24 2.37388 24 2.28571ZM17.1942 4.57143L18.933 5.71429L18.3527 9.14286L13.7143 5.71429L17.1942 4.57143ZM6.28571 19.4286L4 17.7143L5.14286 13.7143L9.71429 18.2857L6.28571 19.4286ZM18.3996 18.8571H15.7333L4 5.10045L6.13281 4.57143L20 15.1529L18.3996 18.8571Z" fill="white"/>
</svg>
