<svg width="12" height="12" viewBox="0 0 12 12" fill="none" xmlns="http://www.w3.org/2000/svg">
<path d="M6.09243 7.76508C7.85385 7.76508 9.35785 8.12162 9.35785 9.54837C9.35785 10.9745 7.8635 11.3441 6.09243 11.3441C4.33101 11.3441 2.827 10.9875 2.827 9.56136C2.827 8.13461 4.32136 7.76508 6.09243 7.76508ZM8.90872 6.90596C9.58212 6.89002 10.3061 7.00808 10.5736 7.0919C11.1404 7.23417 11.5132 7.52459 11.6676 7.94666C11.7981 8.29316 11.7981 8.69515 11.6676 9.04107C11.4313 9.69571 10.6697 9.90586 10.3737 9.96016C10.3125 9.97197 10.2633 9.90409 10.2698 9.82558C10.421 8.01159 9.21807 7.15152 8.90688 6.95377C8.89355 6.94492 8.89079 6.93134 8.89217 6.92308C8.89309 6.91717 8.89861 6.90773 8.90872 6.90596ZM3.20201 6.90474L3.32881 6.9062C3.33893 6.90797 3.34398 6.91741 3.3449 6.92272C3.34628 6.93158 3.34352 6.94456 3.33065 6.95401C3.019 7.15176 1.81607 8.01182 1.9673 9.82522C1.97373 9.90432 1.92501 9.97162 1.86388 9.9604C1.56785 9.90609 0.806197 9.69595 0.569932 9.0413C0.438929 8.6948 0.438929 8.2934 0.569932 7.94689C0.724378 7.52483 1.0967 7.2344 1.66346 7.09155C1.93145 7.00832 2.65495 6.89026 3.32881 6.9062L3.20201 6.90474ZM6.09243 0.856934C7.29168 0.856934 8.25329 2.09066 8.25329 3.63134C8.25329 5.17143 7.29168 6.40633 6.09243 6.40633C4.89317 6.40633 3.93157 5.17143 3.93157 3.63134C3.93157 2.09066 4.89317 0.856934 6.09243 0.856934ZM9.02593 1.31961C10.1843 1.31961 11.0939 2.71921 10.7841 4.27819C10.575 5.32774 9.81793 6.02488 8.97445 5.99655C8.88987 5.99359 8.80668 5.98356 8.72624 5.96585C8.66786 5.95286 8.63844 5.86845 8.67154 5.80588C8.9933 5.19787 9.1767 4.46649 9.1767 3.68139C9.1767 2.86206 8.97629 2.09821 8.62833 1.47191C8.6173 1.45243 8.60902 1.42232 8.62005 1.39989C8.62925 1.38159 8.64625 1.37215 8.66234 1.36742C8.77956 1.33673 8.89999 1.31961 9.02593 1.31961ZM3.21091 1.31955C3.33686 1.31955 3.45729 1.33667 3.57496 1.36736C3.59059 1.37209 3.60806 1.38212 3.61725 1.39983C3.62782 1.42226 3.62001 1.45237 3.60898 1.47185C3.26101 2.09815 3.0606 2.862 3.0606 3.68133C3.0606 4.46643 3.24401 5.19781 3.56577 5.80582C3.59886 5.86839 3.56944 5.9528 3.51107 5.96579C3.43017 5.98409 3.34743 5.99353 3.26285 5.99649C2.41937 6.02482 1.66231 5.32768 1.45317 4.27813C1.1429 2.71915 2.05257 1.31955 3.21091 1.31955Z" fill="white"/>
</svg>
