<svg width="24" height="24" viewBox="0 0 24 24" fill="none" xmlns="http://www.w3.org/2000/svg">
<path d="M3.27767 0L5.46278 3.56364V20.4727L3.13199 24H19.5932L22.9437 19.6364H10.9256V0H3.27767ZM13.1107 0.0727273V2.25455C18.0272 2.8 21.8511 6.94546 21.8511 12C21.8511 14 21.232 15.8909 20.1759 17.4545H22.6887C23.5264 15.8182 23.9998 13.9636 23.9998 12C24.0362 5.74545 19.229 0.618182 13.1107 0.0727273ZM3.13199 3.92727C1.20181 6.07273 0 8.90909 0 12C0 15.0909 1.20181 17.9273 3.13199 20.0364L3.27767 19.8182V16.5091C2.58571 15.1273 2.18511 13.6 2.18511 12C2.18511 10.4 2.58571 8.87273 3.27767 7.52727V4.18182L3.13199 3.92727Z" fill="white"/>
</svg>
