<svg width="12" height="10" viewBox="0 0 12 10" fill="none" xmlns="http://www.w3.org/2000/svg">
<path fill-rule="evenodd" clip-rule="evenodd" d="M11.5747 4.01395C11.5747 4.47008 11.4935 4.90492 11.3464 5.30125L10.9299 7.56981C10.8767 8.66652 10.0676 9.53741 9.07735 9.53741C8.21643 9.53741 7.49246 8.87916 7.28307 7.98655C7.12426 7.83586 6.96774 7.71454 6.81438 7.61889C6.17478 7.21994 5.59018 7.26724 5.12369 7.49093C4.92977 7.58392 4.75627 7.70739 4.6077 7.84195C4.44604 8.80715 3.69119 9.53741 2.7844 9.53741C1.76672 9.53741 0.940419 8.61764 0.929202 7.47824L0.641621 5.60742C0.413012 5.13358 0.283203 4.5909 0.283203 4.01418C0.283203 2.16382 1.61947 0.663805 3.26783 0.663805C3.9678 0.663805 4.61149 0.93429 5.12048 1.38723H6.73717C7.2462 0.934152 7.88998 0.663574 8.59007 0.663574C10.2384 0.663574 11.5747 2.16359 11.5747 4.01395Z" fill="white"/>
<path d="M3.39358 3.07031V5.84834M4.60356 4.36673H2.18359" stroke="black" stroke-width="0.888969" stroke-linecap="round"/>
<path d="M8.40725 4.46022C8.40725 4.81821 8.13639 5.10842 7.80226 5.10842C7.46813 5.10842 7.19727 4.81821 7.19727 4.46022C7.19727 4.10222 7.46813 3.81201 7.80226 3.81201C8.13639 3.81201 8.40725 4.10222 8.40725 4.46022Z" fill="black"/>
<ellipse cx="8.83937" cy="3.3484" rx="0.604993" ry="0.648207" fill="black"/>
<ellipse cx="9.8755" cy="4.46022" rx="0.604993" ry="0.648207" fill="black"/>
<ellipse cx="8.83937" cy="5.57106" rx="0.604993" ry="0.648207" fill="black"/>
</svg>
